<svg xmlns="http://www.w3.org/2000/svg" width="340" height="199" fill="none" viewBox="0 0 340 199">
  <rect width="339" height="198" x=".333" y=".417" fill="url(#a)" rx="10"/>
  <mask id="c" width="340" height="199" x="0" y="0" maskUnits="userSpaceOnUse" style="mask-type:alpha">
    <rect width="339" height="198" x=".333" y=".417" fill="url(#b)" rx="10"/>
  </mask>
  <g mask="url(#c)">
    <circle cx="29.958" cy="88.958" r="157.958" fill="#fff" fill-opacity=".1"/>
  </g>
  <path fill="#fff" d="M278.119 46.153h-6.082l3.804-23.314h6.082l-3.804 23.314Zm22.049-22.743c-1.2-.473-3.103-.993-5.455-.993-6.007 0-10.237 3.174-10.263 7.713-.049 3.348 3.029 5.208 5.331 6.324 2.353 1.141 3.153 1.886 3.153 2.903-.024 1.562-1.901 2.282-3.652 2.282-2.429 0-3.73-.372-5.707-1.24l-.801-.373-.851 5.233c1.426.644 4.054 1.216 6.783 1.241 6.382 0 10.537-3.125 10.586-7.962.024-2.654-1.601-4.687-5.105-6.349-2.128-1.067-3.43-1.786-3.43-2.877.025-.992 1.102-2.009 3.503-2.009 1.977-.05 3.43.421 4.531.893l.55.247.827-5.034Zm8.084 14.484c.501-1.34 2.428-6.523 2.428-6.523-.025.05.5-1.364.801-2.232l.425 2.009s1.151 5.58 1.401 6.746h-5.055Zm7.508-15.055h-4.705c-1.451 0-2.553.422-3.179 1.935l-9.034 21.378h6.382l1.276-3.497h7.809c.175.819.726 3.497.726 3.497h5.632L315.76 22.84Zm-48.803.001L261 38.736l-.651-3.224c-1.101-3.72-4.555-7.763-8.409-9.772l5.456 20.387h6.432l9.56-23.289h-6.431Z"/>
  <path fill="#fff" d="M255.469 22.839h-9.786l-.1.471c7.634 1.935 12.689 6.598 14.766 12.203L258.222 24.8c-.35-1.49-1.426-1.91-2.753-1.96Z"/>
  <path fill="#DFDEDE" fill-rule="evenodd" d="M30.333 22.083h7.834v9.231H25.332v-4.23a5 5 0 0 1 5-5Zm-5 11.539h12.834v6.923H25.332v-6.923Zm0 9.23v4.231a5 5 0 0 0 5 5h7.834v-9.23H25.332Zm26.834 9.231H40.5v-30h21.833a5 5 0 0 1 5 5v4.231H52.167v20.77ZM54.5 33.622h12.833v6.923H54.5v-6.923Zm0 9.23v9.231h7.833a5 5 0 0 0 5-5v-4.23H54.5Z" clip-rule="evenodd"/>
  <path fill="url(#d)" fill-rule="evenodd" d="M30.333 22.083h7.834v9.231H25.332v-4.23a5 5 0 0 1 5-5Zm-5 11.539h12.834v6.923H25.332v-6.923Zm0 9.23v4.231a5 5 0 0 0 5 5h7.834v-9.23H25.332Zm26.834 9.231H40.5v-30h21.833a5 5 0 0 1 5 5v4.231H52.167v20.77ZM54.5 33.622h12.833v6.923H54.5v-6.923Zm0 9.23v9.231h7.833a5 5 0 0 0 5-5v-4.23H54.5Z" clip-rule="evenodd"/>
  <path fill="#fff" d="M25.672 126c-.32 0-.616-.072-.888-.216a.7.7 0 0 1-.384-.648v-13.32l-.84 1.056c-.096.08-.192.144-.288.192a.642.642 0 0 1-.24.048.751.751 0 0 1-.624-.312 1.251 1.251 0 0 1-.24-.744c0-.4.168-.72.504-.96l2.496-2.4a.935.935 0 0 1 .648-.264c.272 0 .528.08.768.24.24.144.36.344.36.6v15.864c0 .288-.136.504-.408.648a1.731 1.731 0 0 1-.864.216Zm4.55 0c-.224 0-.472-.072-.744-.216-.256-.16-.384-.376-.384-.648v-2.328c0-.64.192-1.232.576-1.776a7.933 7.933 0 0 1 1.464-1.584 25.587 25.587 0 0 1 1.896-1.44c.672-.48 1.304-.96 1.896-1.44a8.71 8.71 0 0 0 1.464-1.536c.384-.544.576-1.12.576-1.728 0-.4-.096-.792-.288-1.176a2.296 2.296 0 0 0-.84-.96c-.384-.256-.88-.384-1.488-.384-.672 0-1.248.192-1.728.576-.464.384-.696.984-.696 1.8 0 .24-.12.464-.36.672-.224.192-.544.288-.96.288-.352 0-.632-.096-.84-.288-.208-.208-.312-.584-.312-1.128 0-.848.224-1.592.672-2.232a4.673 4.673 0 0 1 1.8-1.488 5.702 5.702 0 0 1 2.448-.528c.912 0 1.76.2 2.544.6.784.4 1.408.96 1.872 1.68.48.704.72 1.536.72 2.496 0 .864-.192 1.64-.576 2.328a7.496 7.496 0 0 1-1.44 1.848 15.907 15.907 0 0 1-1.896 1.536c-.656.464-1.28.904-1.872 1.32a9.618 9.618 0 0 0-1.44 1.248c-.368.416-.552.848-.552 1.296v.936h7.032c.224 0 .416.112.576.336.176.208.264.464.264.768s-.088.576-.264.816c-.16.224-.352.336-.576.336h-8.544Zm15.892.144c-1.248 0-2.264-.216-3.048-.648-.768-.448-1.336-.992-1.704-1.632-.368-.656-.552-1.304-.552-1.944 0-.416.088-.696.264-.84.192-.16.504-.24.936-.24.512 0 .856.08 1.032.24.192.16.288.392.288.696 0 .544.224 1.032.672 1.464.464.432 1.176.648 2.136.648.992 0 1.72-.232 2.184-.696.48-.48.72-1.24.72-2.28v-.456c0-.96-.272-1.632-.816-2.016-.528-.4-1.224-.6-2.088-.6-.304 0-.52-.104-.648-.312a1.302 1.302 0 0 1-.192-.696c0-.256.064-.488.192-.696.128-.224.336-.336.624-.336.496 0 .928-.064 1.296-.192.384-.144.68-.4.888-.768.208-.384.312-.944.312-1.68 0-.88-.208-1.512-.624-1.896-.4-.384-.992-.576-1.776-.576-.96 0-1.616.208-1.968.624-.352.4-.528.848-.528 1.344 0 .32-.088.576-.264.768-.16.176-.472.264-.936.264-.56 0-.92-.08-1.08-.24-.16-.176-.24-.488-.24-.936 0-.384.08-.808.24-1.272.16-.48.424-.928.792-1.344.384-.416.904-.76 1.56-1.032s1.472-.408 2.448-.408c.944 0 1.776.136 2.496.408.72.272 1.288.72 1.704 1.344.416.624.624 1.464.624 2.52 0 .992-.176 1.84-.528 2.544-.352.704-.816 1.192-1.392 1.464.72.272 1.304.704 1.752 1.296.464.592.696 1.4.696 2.424v.456c0 1.264-.248 2.28-.744 3.048a4.198 4.198 0 0 1-1.968 1.68c-.832.336-1.752.504-2.76.504ZM60.557 126c-.32 0-.616-.072-.888-.216a.7.7 0 0 1-.384-.648v-3.072h-5.88a.928.928 0 0 1-.648-.24c-.16-.176-.24-.408-.24-.696 0-.192.048-.376.144-.552l5.784-11.424c.144-.256.312-.432.504-.528.208-.112.416-.168.624-.168.224 0 .488.096.792.288.304.176.456.408.456.696 0 .096-.032.224-.096.384l-4.944 9.864h3.504v-3.312c0-.304.128-.52.384-.648a2.06 2.06 0 0 1 .888-.192c.32 0 .608.064.864.192a.664.664 0 0 1 .408.648v3.312h1.2a.7.7 0 0 1 .648.384c.144.24.216.504.216.792 0 .304-.088.584-.264.84-.176.24-.376.36-.6.36h-1.2v3.072c0 .288-.136.504-.408.648a1.731 1.731 0 0 1-.864.216Zm14.152.144c-1.152 0-2.136-.2-2.952-.6-.8-.4-1.408-.92-1.824-1.56a3.834 3.834 0 0 1-.624-2.088c0-.448.112-.752.336-.912.224-.176.536-.264.936-.264.512 0 .848.096 1.008.288a.993.993 0 0 1 .264.696c0 .704.272 1.248.816 1.632.544.368 1.208.552 1.992.552.896 0 1.6-.24 2.112-.72.512-.496.768-1.264.768-2.304v-.456c0-1.024-.256-1.784-.768-2.28-.512-.496-1.2-.744-2.064-.744h-3.48c-.432 0-.728-.088-.888-.264-.144-.176-.216-.416-.216-.72v-.264c.016-.096.032-.2.048-.312l.552-6.528c.048-.56.24-.84.576-.84h7.128c.256 0 .448.12.576.36.144.224.216.48.216.768 0 .288-.072.552-.216.792a.623.623 0 0 1-.576.336h-5.544l-.336 4.632h2.16c1.008 0 1.912.168 2.712.504a4.16 4.16 0 0 1 1.944 1.608c.48.736.72 1.72.72 2.952v.456c0 1.28-.24 2.312-.72 3.096a4.217 4.217 0 0 1-1.944 1.68c-.816.336-1.72.504-2.712.504Zm12.578 0c-1.008 0-1.92-.176-2.736-.528a4.18 4.18 0 0 1-1.944-1.704c-.48-.784-.72-1.832-.72-3.144v-6.96c0-1.296.24-2.336.72-3.12a4.292 4.292 0 0 1 1.993-1.704c.832-.352 1.768-.528 2.808-.528 1.2 0 2.183.216 2.951.648.785.432 1.36.976 1.729 1.632.384.656.576 1.32.576 1.992 0 .416-.105.704-.313.864-.192.144-.48.216-.864.216a2.17 2.17 0 0 1-.935-.192c-.273-.128-.409-.384-.409-.768 0-.672-.28-1.192-.84-1.56-.543-.384-1.2-.576-1.968-.576-.911 0-1.623.256-2.135.768-.513.496-.769 1.272-.769 2.328v3c.4-.48.889-.824 1.465-1.032a5.472 5.472 0 0 1 1.871-.312c.913 0 1.737.152 2.473.456.736.288 1.32.792 1.752 1.512.447.704.671 1.68.671 2.928v.408c0 1.312-.24 2.36-.72 3.144a4.05 4.05 0 0 1-1.92 1.704c-.816.352-1.727.528-2.736.528Zm0-2.136c.896 0 1.592-.248 2.088-.744s.745-1.272.745-2.328v-.408c0-1.104-.249-1.88-.745-2.328-.496-.464-1.2-.696-2.112-.696-.864 0-1.552.216-2.064.648-.511.416-.767 1.136-.767 2.16v.624c0 1.056.248 1.832.743 2.328.513.496 1.216.744 2.112.744Zm9.915 2.064c-.4 0-.768-.112-1.104-.336-.32-.24-.48-.544-.48-.912 0-.16.04-.32.12-.48l6.6-12.144v-1.488H96.65v2.256c0 .24-.136.44-.408.6a1.64 1.64 0 0 1-.888.24 1.64 1.64 0 0 1-.888-.24c-.24-.16-.36-.36-.36-.6v-3.672c0-.208.112-.4.336-.576a1.31 1.31 0 0 1 .792-.264h8.52c.256 0 .504.088.744.264.256.176.384.368.384.576v2.472c0 .208-.048.44-.144.696-.096.256-.2.496-.312.72l-6.456 12.504c-.144.256-.4.384-.768.384Zm14.265.072c-1.008 0-1.92-.16-2.736-.48a4.206 4.206 0 0 1-1.944-1.584c-.48-.736-.72-1.696-.72-2.88v-.288c0-1.232.256-2.208.768-2.928a4.13 4.13 0 0 1 2.016-1.56 3.41 3.41 0 0 1-1.632-1.296c-.4-.608-.6-1.424-.6-2.448s.208-1.84.624-2.448a3.456 3.456 0 0 1 1.728-1.344c.736-.288 1.568-.432 2.496-.432.944 0 1.776.144 2.496.432.736.272 1.312.72 1.728 1.344.432.608.648 1.424.648 2.448s-.208 1.84-.624 2.448a3.28 3.28 0 0 1-1.608 1.296 4.002 4.002 0 0 1 1.992 1.56c.512.72.768 1.696.768 2.928v.288c0 1.184-.24 2.144-.72 2.88a4.206 4.206 0 0 1-1.944 1.584c-.816.32-1.728.48-2.736.48Zm.024-2.112c.896 0 1.592-.256 2.088-.768s.744-1.288.744-2.328v-.432c0-1.024-.256-1.776-.768-2.256-.496-.496-1.192-.744-2.088-.744-.88 0-1.576.248-2.088.744-.512.48-.768 1.232-.768 2.256v.432c0 1.056.256 1.84.768 2.352.512.496 1.216.744 2.112.744Zm-.024-8.64c.768 0 1.36-.184 1.776-.552.432-.384.648-1.008.648-1.872 0-.848-.216-1.456-.648-1.824-.416-.384-1.008-.576-1.776-.576-.752 0-1.344.192-1.776.576-.416.368-.624.976-.624 1.824 0 .864.208 1.488.624 1.872.432.368 1.024.552 1.776.552Zm17.296 10.752c-1.2 0-2.192-.216-2.976-.648-.784-.432-1.368-.976-1.752-1.632-.368-.656-.552-1.32-.552-1.992 0-.416.096-.704.288-.864.208-.16.512-.24.912-.24.352 0 .656.072.912.216.272.128.408.384.408.768 0 .672.272 1.2.816 1.584.56.368 1.232.552 2.016.552.912 0 1.624-.248 2.136-.744.512-.512.768-1.304.768-2.376v-3c-.4.496-.896.848-1.488 1.056-.576.208-1.2.312-1.872.312-.896 0-1.72-.144-2.472-.432-.736-.304-1.328-.808-1.776-1.512-.432-.72-.648-1.704-.648-2.952v-.432c0-1.296.24-2.336.72-3.12.48-.784 1.12-1.352 1.92-1.704.816-.352 1.728-.528 2.736-.528 1.024 0 1.944.176 2.76.528a4.18 4.18 0 0 1 1.944 1.704c.48.784.72 1.824.72 3.12v6.96c0 1.312-.248 2.36-.744 3.144a4.16 4.16 0 0 1-1.968 1.704c-.832.352-1.768.528-2.808.528Zm.12-9.048c.864 0 1.552-.208 2.064-.624.528-.432.792-1.16.792-2.184v-.624c0-1.056-.256-1.832-.768-2.328-.512-.512-1.216-.768-2.112-.768-.88 0-1.576.256-2.088.768-.496.496-.744 1.272-.744 2.328v.408c0 1.104.248 1.888.744 2.352.512.448 1.216.672 2.112.672Zm10.25 8.904c-.32 0-.616-.072-.888-.216a.7.7 0 0 1-.384-.648v-13.32l-.84 1.056c-.096.08-.192.144-.288.192a.642.642 0 0 1-.24.048.751.751 0 0 1-.624-.312 1.251 1.251 0 0 1-.24-.744c0-.4.168-.72.504-.96l2.496-2.4a.935.935 0 0 1 .648-.264c.272 0 .528.08.768.24.24.144.36.344.36.6v15.864c0 .288-.136.504-.408.648a1.731 1.731 0 0 1-.864.216Zm4.55 0c-.224 0-.472-.072-.744-.216-.256-.16-.384-.376-.384-.648v-2.328c0-.64.192-1.232.576-1.776a7.933 7.933 0 0 1 1.464-1.584 25.587 25.587 0 0 1 1.896-1.44c.672-.48 1.304-.96 1.896-1.44a8.71 8.71 0 0 0 1.464-1.536c.384-.544.576-1.12.576-1.728 0-.4-.096-.792-.288-1.176a2.296 2.296 0 0 0-.84-.96c-.384-.256-.88-.384-1.488-.384-.672 0-1.248.192-1.728.576-.464.384-.696.984-.696 1.8 0 .24-.12.464-.36.672-.224.192-.544.288-.96.288-.352 0-.632-.096-.84-.288-.208-.208-.312-.584-.312-1.128 0-.848.224-1.592.672-2.232a4.673 4.673 0 0 1 1.8-1.488 5.702 5.702 0 0 1 2.448-.528c.912 0 1.76.2 2.544.6.784.4 1.408.96 1.872 1.68.48.704.72 1.536.72 2.496 0 .864-.192 1.64-.576 2.328a7.496 7.496 0 0 1-1.44 1.848 15.907 15.907 0 0 1-1.896 1.536c-.656.464-1.28.904-1.872 1.32a9.618 9.618 0 0 0-1.44 1.248c-.368.416-.552.848-.552 1.296v.936h7.032c.224 0 .416.112.576.336.176.208.264.464.264.768s-.088.576-.264.816c-.16.224-.352.336-.576.336h-8.544Zm15.892.144c-1.248 0-2.264-.216-3.048-.648-.768-.448-1.336-.992-1.704-1.632-.368-.656-.552-1.304-.552-1.944 0-.416.088-.696.264-.84.192-.16.504-.24.936-.24.512 0 .856.08 1.032.24.192.16.288.392.288.696 0 .544.224 1.032.672 1.464.464.432 1.176.648 2.136.648.992 0 1.72-.232 2.184-.696.48-.48.72-1.24.72-2.28v-.456c0-.96-.272-1.632-.816-2.016-.528-.4-1.224-.6-2.088-.6-.304 0-.52-.104-.648-.312a1.302 1.302 0 0 1-.192-.696c0-.256.064-.488.192-.696.128-.224.336-.336.624-.336.496 0 .928-.064 1.296-.192.384-.144.68-.4.888-.768.208-.384.312-.944.312-1.68 0-.88-.208-1.512-.624-1.896-.4-.384-.992-.576-1.776-.576-.96 0-1.616.208-1.968.624-.352.4-.528.848-.528 1.344 0 .32-.088.576-.264.768-.16.176-.472.264-.936.264-.56 0-.92-.08-1.08-.24-.16-.176-.24-.488-.24-.936 0-.384.08-.808.24-1.272.16-.48.424-.928.792-1.344.384-.416.904-.76 1.56-1.032s1.472-.408 2.448-.408c.944 0 1.776.136 2.496.408.72.272 1.288.72 1.704 1.344.416.624.624 1.464.624 2.52 0 .992-.176 1.84-.528 2.544-.352.704-.816 1.192-1.392 1.464.72.272 1.304.704 1.752 1.296.464.592.696 1.4.696 2.424v.456c0 1.264-.248 2.28-.744 3.048a4.198 4.198 0 0 1-1.968 1.68c-.832.336-1.752.504-2.76.504Zm19.247-.144c-.32 0-.616-.072-.888-.216a.7.7 0 0 1-.384-.648v-3.072h-5.88a.928.928 0 0 1-.648-.24c-.16-.176-.24-.408-.24-.696 0-.192.048-.376.144-.552l5.784-11.424c.144-.256.312-.432.504-.528.208-.112.416-.168.624-.168.224 0 .488.096.792.288.304.176.456.408.456.696 0 .096-.032.224-.096.384l-4.944 9.864h3.504v-3.312c0-.304.128-.52.384-.648a2.06 2.06 0 0 1 .888-.192c.32 0 .608.064.864.192a.664.664 0 0 1 .408.648v3.312h1.2a.7.7 0 0 1 .648.384c.144.24.216.504.216.792 0 .304-.088.584-.264.84-.176.24-.376.36-.6.36h-1.2v3.072c0 .288-.136.504-.408.648a1.731 1.731 0 0 1-.864.216Zm9.465.144c-1.152 0-2.136-.2-2.952-.6-.8-.4-1.408-.92-1.824-1.56a3.834 3.834 0 0 1-.624-2.088c0-.448.112-.752.336-.912.224-.176.536-.264.936-.264.512 0 .848.096 1.008.288a.993.993 0 0 1 .264.696c0 .704.272 1.248.816 1.632.544.368 1.208.552 1.992.552.896 0 1.6-.24 2.112-.72.512-.496.768-1.264.768-2.304v-.456c0-1.024-.256-1.784-.768-2.28-.512-.496-1.2-.744-2.064-.744h-3.48c-.432 0-.728-.088-.888-.264-.144-.176-.216-.416-.216-.72v-.264c.016-.096.032-.2.048-.312l.552-6.528c.048-.56.24-.84.576-.84h7.128c.256 0 .448.12.576.36.144.224.216.48.216.768 0 .288-.072.552-.216.792a.623.623 0 0 1-.576.336h-5.544l-.336 4.632h2.16c1.008 0 1.912.168 2.712.504a4.16 4.16 0 0 1 1.944 1.608c.48.736.72 1.72.72 2.952v.456c0 1.28-.24 2.312-.72 3.096a4.217 4.217 0 0 1-1.944 1.68c-.816.336-1.72.504-2.712.504Zm12.579 0c-1.008 0-1.92-.176-2.736-.528a4.18 4.18 0 0 1-1.944-1.704c-.48-.784-.72-1.832-.72-3.144v-6.96c0-1.296.24-2.336.72-3.12a4.292 4.292 0 0 1 1.992-1.704c.832-.352 1.768-.528 2.808-.528 1.2 0 2.184.216 2.952.648.784.432 1.36.976 1.728 1.632.384.656.576 1.32.576 1.992 0 .416-.104.704-.312.864-.192.144-.48.216-.864.216-.352 0-.664-.064-.936-.192s-.408-.384-.408-.768c0-.672-.28-1.192-.84-1.56-.544-.384-1.2-.576-1.968-.576-.912 0-1.624.256-2.136.768-.512.496-.768 1.272-.768 2.328v3c.4-.48.888-.824 1.464-1.032a5.472 5.472 0 0 1 1.872-.312c.912 0 1.736.152 2.472.456.736.288 1.32.792 1.752 1.512.448.704.672 1.68.672 2.928v.408c0 1.312-.24 2.36-.72 3.144a4.05 4.05 0 0 1-1.92 1.704c-.816.352-1.728.528-2.736.528Zm0-2.136c.896 0 1.592-.248 2.088-.744s.744-1.272.744-2.328v-.408c0-1.104-.248-1.88-.744-2.328-.496-.464-1.2-.696-2.112-.696-.864 0-1.552.216-2.064.648-.512.416-.768 1.136-.768 2.16v.624c0 1.056.248 1.832.744 2.328.512.496 1.216.744 2.112.744Zm9.914 2.064c-.4 0-.768-.112-1.104-.336-.32-.24-.48-.544-.48-.912 0-.16.04-.32.12-.48l6.6-12.144v-1.488h-5.688v2.256c0 .24-.136.44-.408.6a1.64 1.64 0 0 1-.888.24 1.64 1.64 0 0 1-.888-.24c-.24-.16-.36-.36-.36-.6v-3.672c0-.208.112-.4.336-.576a1.31 1.31 0 0 1 .792-.264h8.52c.256 0 .504.088.744.264.256.176.384.368.384.576v2.472c0 .208-.048.44-.144.696-.096.256-.2.496-.312.72l-6.456 12.504c-.144.256-.4.384-.768.384ZM23.584 168.16v-15.432c0-.432.12-.752.36-.96.24-.208.544-.312.912-.312.464 0 .84.104 1.128.312.304.192.6.568.888 1.128l3.36 6.36 3.408-6.36c.288-.56.576-.936.864-1.128.288-.208.664-.312 1.128-.312.368 0 .672.104.912.312.24.208.36.528.36.96v15.432c0 .256-.128.464-.384.624-.24.144-.536.216-.888.216a1.78 1.78 0 0 1-.888-.216c-.256-.16-.384-.368-.384-.624v-11.52l-3.216 5.952c-.24.384-.552.576-.936.576s-.672-.192-.864-.576l-3.216-6.096v11.664c0 .256-.128.464-.384.624-.24.144-.536.216-.888.216a1.78 1.78 0 0 1-.888-.216c-.256-.16-.384-.368-.384-.624Zm15.229-.216c0-.096.008-.168.024-.216l4.776-15.552c.192-.576.728-.864 1.608-.864.896 0 1.44.288 1.632.864l4.752 15.552a.762.762 0 0 1 .048.216c0 .288-.176.536-.528.744a2.016 2.016 0 0 1-1.08.312c-.464 0-.752-.176-.864-.528l-.984-3.408h-5.928l-.984 3.408c-.112.352-.408.528-.888.528-.384 0-.744-.104-1.08-.312-.336-.208-.504-.456-.504-.744Zm4.008-4.92h4.8l-2.4-8.232-2.4 8.232Zm10.716 5.136v-15.888c0-.224.08-.416.24-.576.16-.16.36-.24.6-.24h4.56c3.68 0 5.52 1.632 5.52 4.896 0 1.36-.304 2.432-.912 3.216-.608.768-1.432 1.28-2.472 1.536l3.36 6.312a.714.714 0 0 1 .096.36c0 .32-.168.616-.504.888-.32.272-.664.408-1.032.408-.416 0-.752-.248-1.008-.744l-3.504-6.864h-2.424v6.696c0 .256-.128.464-.384.624-.24.144-.536.216-.888.216a1.78 1.78 0 0 1-.888-.216c-.24-.16-.36-.368-.36-.624Zm2.52-8.736h2.88c1.984 0 2.976-.952 2.976-2.856s-.992-2.856-2.976-2.856h-2.88v5.712Zm10.886 8.736v-15.888c0-.272.12-.472.36-.6.256-.144.56-.216.912-.216s.648.072.888.216c.256.128.384.328.384.6v7.296l5.856-7.752c.16-.24.4-.36.72-.36.336 0 .664.144.984.432.32.272.48.568.48.888 0 .192-.064.36-.192.504l-4.608 5.76 5.472 8.328a.809.809 0 0 1 .144.456c0 .304-.16.592-.48.864-.304.256-.64.384-1.008.384-.4 0-.704-.16-.912-.48l-4.896-7.416-1.56 1.968v5.016c0 .256-.128.464-.384.624-.24.144-.536.216-.888.216a1.78 1.78 0 0 1-.888-.216c-.256-.16-.384-.368-.384-.624Zm17.79.024v-15.912c0-.224.103-.416.311-.576.224-.16.496-.24.816-.24h4.248c1.632 0 2.936.432 3.912 1.296.992.864 1.488 2.216 1.488 4.056v6.84c0 1.84-.496 3.192-1.488 4.056-.976.864-2.28 1.296-3.912 1.296H85.86c-.32 0-.592-.08-.816-.24-.208-.16-.312-.352-.312-.576Zm2.543-1.44h2.832c1.904 0 2.856-1.032 2.856-3.096v-6.84c0-2.064-.952-3.096-2.856-3.096h-2.832v13.032Zm11.046-2.952v-6.984c0-1.84.488-3.192 1.464-4.056.976-.864 2.28-1.296 3.912-1.296 1.632 0 2.936.432 3.912 1.296.992.864 1.488 2.216 1.488 4.056v6.984c0 1.84-.496 3.192-1.488 4.056-.976.864-2.28 1.296-3.912 1.296-1.632 0-2.936-.432-3.912-1.296-.976-.864-1.464-2.216-1.464-4.056Zm2.544 0c0 2.064.944 3.096 2.832 3.096.912 0 1.616-.256 2.112-.768s.744-1.288.744-2.328v-6.984c0-1.04-.248-1.816-.744-2.328-.496-.512-1.2-.768-2.112-.768-1.888 0-2.832 1.032-2.832 3.096v6.984Zm11.218 4.368v-15.864c0-.256.112-.456.336-.6.224-.16.488-.24.792-.24h8.544c.272 0 .48.112.624.336.144.224.216.48.216.768 0 .32-.08.592-.24.816a.677.677 0 0 1-.6.336h-7.128v5.496h3.696a.69.69 0 0 1 .6.312c.16.192.24.432.24.72 0 .256-.072.488-.216.696-.144.192-.352.288-.624.288h-3.696v5.52h7.128c.256 0 .456.112.6.336.16.224.24.496.24.816 0 .288-.072.544-.216.768a.697.697 0 0 1-.624.336h-8.544c-.304 0-.568-.072-.792-.216-.224-.16-.336-.368-.336-.624Zm147.492.984c-1.008 0-1.92-.176-2.736-.528a4.18 4.18 0 0 1-1.944-1.704c-.464-.784-.696-1.832-.696-3.144v-6.96c0-1.296.232-2.336.696-3.12a4.18 4.18 0 0 1 1.944-1.704c.816-.352 1.728-.528 2.736-.528 1.008 0 1.92.176 2.736.528a4.18 4.18 0 0 1 1.944 1.704c.48.784.72 1.824.72 3.12v6.96c0 1.312-.24 2.36-.72 3.144a4.18 4.18 0 0 1-1.944 1.704c-.816.352-1.728.528-2.736.528Zm0-2.256c.896 0 1.592-.248 2.088-.744.512-.512.768-1.304.768-2.376v-6.96c0-1.056-.256-1.832-.768-2.328-.496-.512-1.192-.768-2.088-.768-.896 0-1.592.256-2.088.768-.496.496-.744 1.272-.744 2.328v6.96c0 1.072.248 1.864.744 2.376.496.496 1.192.744 2.088.744Zm.024-5.544c-.32 0-.576-.096-.768-.288a1.114 1.114 0 0 1-.264-.744c0-.304.088-.544.264-.72.192-.192.448-.288.768-.288.304 0 .544.096.72.288.192.176.288.416.288.72 0 .288-.096.536-.288.744-.176.192-.416.288-.72.288Zm13.148 7.8c-1.008 0-1.92-.176-2.736-.528a4.18 4.18 0 0 1-1.944-1.704c-.464-.784-.696-1.832-.696-3.144v-6.96c0-1.296.232-2.336.696-3.12a4.18 4.18 0 0 1 1.944-1.704c.816-.352 1.728-.528 2.736-.528 1.008 0 1.92.176 2.736.528a4.18 4.18 0 0 1 1.944 1.704c.48.784.72 1.824.72 3.12v6.96c0 1.312-.24 2.36-.72 3.144a4.18 4.18 0 0 1-1.944 1.704c-.816.352-1.728.528-2.736.528Zm0-2.256c.896 0 1.592-.248 2.088-.744.512-.512.768-1.304.768-2.376v-6.96c0-1.056-.256-1.832-.768-2.328-.496-.512-1.192-.768-2.088-.768-.896 0-1.592.256-2.088.768-.496.496-.744 1.272-.744 2.328v6.96c0 1.072.248 1.864.744 2.376.496.496 1.192.744 2.088.744Zm.024-5.544c-.32 0-.576-.096-.768-.288a1.114 1.114 0 0 1-.264-.744c0-.304.088-.544.264-.72.192-.192.448-.288.768-.288.304 0 .544.096.72.288.192.176.288.416.288.72 0 .288-.096.536-.288.744-.176.192-.416.288-.72.288Zm7.659 8.496a.872.872 0 0 1-.672-.288.827.827 0 0 1-.264-.6c0-.128.032-.248.096-.36l8.832-17.64c.128-.288.36-.432.696-.432.24 0 .464.088.672.264.224.16.336.376.336.648a.967.967 0 0 1-.072.384l-8.808 17.568c-.144.304-.416.456-.816.456Zm16.364-.696c-1.008 0-1.92-.176-2.736-.528a4.18 4.18 0 0 1-1.944-1.704c-.464-.784-.696-1.832-.696-3.144v-6.96c0-1.296.232-2.336.696-3.12a4.18 4.18 0 0 1 1.944-1.704c.816-.352 1.728-.528 2.736-.528 1.008 0 1.92.176 2.736.528a4.18 4.18 0 0 1 1.944 1.704c.48.784.72 1.824.72 3.12v6.96c0 1.312-.24 2.36-.72 3.144a4.18 4.18 0 0 1-1.944 1.704c-.816.352-1.728.528-2.736.528Zm0-2.256c.896 0 1.592-.248 2.088-.744.512-.512.768-1.304.768-2.376v-6.96c0-1.056-.256-1.832-.768-2.328-.496-.512-1.192-.768-2.088-.768-.896 0-1.592.256-2.088.768-.496.496-.744 1.272-.744 2.328v6.96c0 1.072.248 1.864.744 2.376.496.496 1.192.744 2.088.744Zm.024-5.544c-.32 0-.576-.096-.768-.288a1.114 1.114 0 0 1-.264-.744c0-.304.088-.544.264-.72.192-.192.448-.288.768-.288.304 0 .544.096.72.288.192.176.288.416.288.72 0 .288-.096.536-.288.744-.176.192-.416.288-.72.288Zm13.148 7.8c-1.008 0-1.92-.176-2.736-.528a4.18 4.18 0 0 1-1.944-1.704c-.464-.784-.696-1.832-.696-3.144v-6.96c0-1.296.232-2.336.696-3.12a4.18 4.18 0 0 1 1.944-1.704c.816-.352 1.728-.528 2.736-.528 1.008 0 1.92.176 2.736.528a4.18 4.18 0 0 1 1.944 1.704c.48.784.72 1.824.72 3.12v6.96c0 1.312-.24 2.36-.72 3.144a4.18 4.18 0 0 1-1.944 1.704c-.816.352-1.728.528-2.736.528Zm0-2.256c.896 0 1.592-.248 2.088-.744.512-.512.768-1.304.768-2.376v-6.96c0-1.056-.256-1.832-.768-2.328-.496-.512-1.192-.768-2.088-.768-.896 0-1.592.256-2.088.768-.496.496-.744 1.272-.744 2.328v6.96c0 1.072.248 1.864.744 2.376.496.496 1.192.744 2.088.744Zm.024-5.544c-.32 0-.576-.096-.768-.288a1.114 1.114 0 0 1-.264-.744c0-.304.088-.544.264-.72.192-.192.448-.288.768-.288.304 0 .544.096.72.288.192.176.288.416.288.72 0 .288-.096.536-.288.744-.176.192-.416.288-.72.288Z"/>
  <defs>
    <linearGradient id="a" x1="51.986" x2="341.292" y1=".417" y2="17.435" gradientUnits="userSpaceOnUse">
      <stop stop-color="#FF6161"/>
      <stop offset="1" stop-color="#FF61DC"/>
    </linearGradient>
    <linearGradient id="b" x1="51.986" x2="341.292" y1=".417" y2="17.435" gradientUnits="userSpaceOnUse">
      <stop stop-color="#FF6161"/>
      <stop offset="1" stop-color="#FF61DC"/>
    </linearGradient>
    <linearGradient id="d" x1="46.333" x2="46.333" y1="22.083" y2="52.083" gradientUnits="userSpaceOnUse">
      <stop stop-color="#fff"/>
      <stop offset="1" stop-color="#fff" stop-opacity="0"/>
    </linearGradient>
  </defs>
</svg>
