<svg xmlns="http://www.w3.org/2000/svg" width="19" height="18" fill="none" viewBox="0 0 19 18">
  <path fill="url(#a)" d="M9.5.531C4.684.531.781 4.47.781 9.25A8.717 8.717 0 0 0 9.5 17.969c4.781 0 8.719-3.903 8.719-8.719C18.219 4.469 14.28.531 9.5.531Zm6.082 4.219-2.215 2.215a4.86 4.86 0 0 0-1.582-1.582L14 3.168a8.425 8.425 0 0 1 1.582 1.582ZM9.5 12.625c-1.898 0-3.375-1.477-3.375-3.375A3.354 3.354 0 0 1 9.5 5.875a3.376 3.376 0 0 1 3.375 3.375A3.354 3.354 0 0 1 9.5 12.625ZM4.965 3.168 7.18 5.383a4.86 4.86 0 0 0-1.582 1.582L3.383 4.75a8.427 8.427 0 0 1 1.582-1.582ZM3.383 13.785l2.215-2.215a4.86 4.86 0 0 0 1.582 1.582l-2.215 2.215a8.428 8.428 0 0 1-1.582-1.582ZM14 15.367l-2.215-2.215a4.86 4.86 0 0 0 1.582-1.582l2.215 2.215A8.425 8.425 0 0 1 14 15.367Z"/>
  <defs>
    <linearGradient id="a" x1="2.2" x2="20.151" y1="1" y2="1.762" gradientUnits="userSpaceOnUse">
      <stop stop-color="#FF6161"/>
      <stop offset="1" stop-color="#FF61DC"/>
    </linearGradient>
  </defs>
</svg>
