<svg xmlns="http://www.w3.org/2000/svg" width="27" height="22" fill="none" viewBox="0 0 27 22">
  <path fill="#BDBDBD" d="M22.875 13.672c0-.188-.093-.328-.187-.469l-8.813-7.219a.748.748 0 0 0-.375-.14.532.532 0 0 0-.375.14l-8.812 7.22a.602.602 0 0 0-.188.468v6.703c0 .328.094.61.328.797.188.234.47.328.797.328h5.438c.14 0 .281-.047.375-.14a.594.594 0 0 0 .187-.422v-5.25c0-.141.047-.282.14-.376a.594.594 0 0 1 .423-.187h3.375c.14 0 .281.094.375.188.093.093.187.234.187.374v5.25c0 .188.047.329.14.422.095.094.235.141.423.141h5.437c.282 0 .563-.094.797-.328a1.13 1.13 0 0 0 .328-.797v-6.703Zm3.938-2.86c.094.094.14.235.14.376 0 .187 0 .328-.093.421l-1.172 1.454a.426.426 0 0 1-.375.187c-.188 0-.328-.047-.422-.14L13.875 4.062a.748.748 0 0 0-.375-.141.532.532 0 0 0-.375.14L2.11 13.11a.756.756 0 0 1-.422.141c-.188 0-.282-.047-.375-.188L.14 11.61c-.094-.093-.14-.234-.14-.421 0-.141.093-.282.187-.376l11.906-9.796A2.075 2.075 0 0 1 13.5.5c.516 0 .985.188 1.453.516l4.172 3.468V1.063c0-.141.047-.282.14-.375A.594.594 0 0 1 19.689.5h2.625c.14 0 .281.094.375.188.094.093.187.234.187.375v6.515l3.938 3.234Z"/>
</svg>
