<svg xmlns="http://www.w3.org/2000/svg" width="22" height="24" fill="none" viewBox="0 0 22 24">
  <path fill="#BDBDBD" d="M11 24c-.844 0-1.547-.281-2.11-.844C8.282 22.594 8 21.844 8 21h6c0 .844-.328 1.594-.89 2.156-.61.563-1.313.844-2.11.844Zm10.078-7.031c.282.328.422.703.422 1.078 0 .375-.14.75-.422 1.031-.281.281-.656.422-1.078.422H2c-.469 0-.797-.14-1.078-.422A1.454 1.454 0 0 1 .5 18.047c0-.375.14-.75.422-1.078l.14-.188c.704-.75 1.22-1.453 1.594-2.203.563-1.219.844-2.86.844-4.828 0-1.781.563-3.375 1.688-4.734C6.313 3.703 7.718 2.859 9.5 2.484V1.5c0-.375.14-.75.422-1.031A1.526 1.526 0 0 1 11 0c.375 0 .75.188 1.031.469.282.281.47.656.47 1.031v.984c1.734.375 3.187 1.22 4.312 2.532C17.938 6.375 18.5 7.969 18.5 9.75c0 1.969.281 3.61.844 4.828.328.75.844 1.453 1.594 2.203.047.094.093.188.14.188Z"/>
</svg>
