<svg xmlns="http://www.w3.org/2000/svg" width="21" height="17" fill="none" viewBox="0 0 21 17">
  <path fill="url(#a)" d="M.375 14.438c0 .949.738 1.687 1.688 1.687h16.875c.914 0 1.687-.738 1.687-1.688V8.25H.375v6.188Zm6.75-2.391c0-.211.176-.422.422-.422h4.781c.211 0 .422.21.422.422v1.406c0 .246-.21.422-.422.422H7.547a.406.406 0 0 1-.422-.422v-1.406Zm-4.5 0c0-.211.176-.422.422-.422h2.531c.211 0 .422.21.422.422v1.406c0 .246-.21.422-.422.422H3.047a.406.406 0 0 1-.422-.422v-1.406Zm18-9.985A1.71 1.71 0 0 0 18.937.375H2.063c-.949 0-1.687.773-1.687 1.688V3.75h20.25V2.062Z"/>
  <defs>
    <linearGradient id="a" x1="3.2" x2="21.151" y1="0" y2=".762" gradientUnits="userSpaceOnUse">
      <stop stop-color="#FF6161"/>
      <stop offset="1" stop-color="#FF61DC"/>
    </linearGradient>
  </defs>
</svg>
