<svg xmlns="http://www.w3.org/2000/svg" width="21" height="19" fill="none" viewBox="0 0 21 19">
  <path fill="url(#a)" d="M20.063 8.125h-1.055c-.317-.703-.774-1.3-1.301-1.828l.668-2.672H17.25a3.288 3.288 0 0 0-2.566 1.23c-.282-.035-.563-.105-.809-.105h-4.5a5.624 5.624 0 0 0-5.52 4.5H2.344c-.528 0-.95-.457-.844-.984.07-.422.457-.704.879-.704h.035c.106 0 .211-.07.211-.21v-.704a.227.227 0 0 0-.21-.21c-1.02 0-1.9.738-2.04 1.722a1.969 1.969 0 0 0 1.969 2.215H3.75a5.56 5.56 0 0 0 2.25 4.5v2.813c0 .316.246.562.563.562h2.25a.578.578 0 0 0 .562-.563V16h4.5v1.688c0 .316.246.562.563.562h2.25a.578.578 0 0 0 .562-.563v-2.812a6.622 6.622 0 0 0 1.09-1.125h1.723a.578.578 0 0 0 .562-.563v-4.5c0-.28-.281-.562-.563-.562Zm-4.5 2.25A.555.555 0 0 1 15 9.812c0-.28.246-.562.563-.562.28 0 .562.281.562.563a.578.578 0 0 1-.563.562Zm-6.188-6.75h4.5c.176 0 .352.035.527.035 0 0 .036 0 .036-.035a3.376 3.376 0 0 0-6.75 0v.246a6.518 6.518 0 0 1 1.687-.246Z"/>
  <defs>
    <linearGradient id="a" x1="3.2" x2="21.151" y1="1" y2="1.762" gradientUnits="userSpaceOnUse">
      <stop stop-color="#FF6161"/>
      <stop offset="1" stop-color="#FF61DC"/>
    </linearGradient>
  </defs>
</svg>
