<svg xmlns="http://www.w3.org/2000/svg" width="24" height="24" fill="none" viewBox="0 0 24 24">
  <path fill="url(#a)" d="M23.672 20.766c.188.234.328.515.328.797 0 .328-.14.609-.328.796l-1.313 1.313a1.098 1.098 0 0 1-.796.328c-.328 0-.61-.094-.797-.328l-4.688-4.688c-.234-.187-.328-.468-.328-.797v-.75c-1.78 1.408-3.75 2.063-6 2.063-1.781 0-3.422-.422-4.922-1.313a9.052 9.052 0 0 1-3.515-3.515C.422 13.172 0 11.532 0 9.75c0-1.781.422-3.375 1.313-4.875.843-1.5 2.015-2.672 3.515-3.563C6.328.47 7.968 0 9.75 0c1.781 0 3.375.469 4.875 1.313a9.98 9.98 0 0 1 3.563 3.562c.843 1.5 1.312 3.094 1.312 4.875 0 2.25-.703 4.266-2.062 6h.75c.28 0 .562.14.797.328l4.687 4.688ZM9.75 15.75c1.078 0 2.063-.234 3-.797.938-.515 1.64-1.219 2.203-2.156a6.153 6.153 0 0 0 .797-3.047c0-1.078-.281-2.063-.797-3a6.2 6.2 0 0 0-2.203-2.203c-.937-.516-1.922-.797-3-.797-1.125 0-2.11.281-3.047.797-.937.562-1.64 1.266-2.156 2.203-.562.938-.797 1.922-.797 3 0 1.125.235 2.11.797 3.047a5.307 5.307 0 0 0 2.156 2.156c.938.563 1.922.797 3.047.797Z"/>
  <defs>
    <linearGradient id="a" x1="3.657" x2="24.186" y1="0" y2=".705" gradientUnits="userSpaceOnUse">
      <stop stop-color="#FF6161"/>
      <stop offset="1" stop-color="#FF61DC"/>
    </linearGradient>
  </defs>
</svg>
