<svg xmlns="http://www.w3.org/2000/svg" width="22" height="24" fill="none" viewBox="0 0 22 24">
  <path fill="#BDBDBD" d="M11 12c-1.125 0-2.11-.234-3.047-.797a5.307 5.307 0 0 1-2.156-2.156C5.234 8.109 5 7.125 5 6c0-1.078.234-2.063.797-3 .516-.938 1.219-1.64 2.156-2.203A6.141 6.141 0 0 1 11 0c1.078 0 2.063.281 3 .797A6.201 6.201 0 0 1 16.203 3c.516.938.797 1.922.797 3 0 1.125-.281 2.11-.797 3.047-.562.937-1.265 1.64-2.203 2.156-.937.563-1.922.797-3 .797Zm4.219 1.5c1.125 0 2.156.281 3.14.844a6.73 6.73 0 0 1 2.297 2.297 6.19 6.19 0 0 1 .844 3.14v1.969c0 .656-.234 1.172-.656 1.594-.469.468-.985.656-1.594.656H2.75c-.656 0-1.172-.188-1.594-.656C.688 22.922.5 22.406.5 21.75v-1.969a6.19 6.19 0 0 1 .844-3.14c.562-.938 1.312-1.735 2.297-2.297.937-.563 2.015-.844 3.14-.844h.797c1.078.516 2.203.75 3.422.75a8.058 8.058 0 0 0 3.422-.75h.797Z"/>
</svg>
